<svg width="24" height="24" viewBox="0 0 24 24" fill="none" xmlns="http://www.w3.org/2000/svg">
<g id="Icon/Fill/shopping-cart">
<path id="Mask" fill-rule="evenodd" clip-rule="evenodd" d="M21.083 6.94824C20.716 6.35424 20.08 6.00024 19.382 6.00024H6.582L5.965 3.73724C5.846 3.30224 5.451 3.00024 5 3.00024H3C2.447 3.00024 2 3.44824 2 4.00024C2 4.55224 2.447 5.00024 3 5.00024H4.236L7.035 15.2632C7.154 15.6982 7.549 16.0002 8 16.0002H17C17.379 16.0002 17.725 15.7862 17.895 15.4472L21.171 8.89424C21.483 8.26924 21.45 7.54224 21.083 6.94824ZM7.5 18C6.672 18 6 18.671 6 19.5C6 20.329 6.672 21 7.5 21C8.328 21 9 20.329 9 19.5C9 18.671 8.328 18 7.5 18ZM16 19.5C16 18.671 16.672 18 17.5 18C18.328 18 19 18.671 19 19.5C19 20.329 18.328 21 17.5 21C16.672 21 16 20.329 16 19.5Z" fill="#D0D0D0"/>
<mask id="mask0" mask-type="alpha" maskUnits="userSpaceOnUse" x="2" y="3" width="20" height="18">
<path id="Mask_2" fill-rule="evenodd" clip-rule="evenodd" d="M21.083 6.94824C20.716 6.35424 20.08 6.00024 19.382 6.00024H6.582L5.965 3.73724C5.846 3.30224 5.451 3.00024 5 3.00024H3C2.447 3.00024 2 3.44824 2 4.00024C2 4.55224 2.447 5.00024 3 5.00024H4.236L7.035 15.2632C7.154 15.6982 7.549 16.0002 8 16.0002H17C17.379 16.0002 17.725 15.7862 17.895 15.4472L21.171 8.89424C21.483 8.26924 21.45 7.54224 21.083 6.94824ZM7.5 18C6.672 18 6 18.671 6 19.5C6 20.329 6.672 21 7.5 21C8.328 21 9 20.329 9 19.5C9 18.671 8.328 18 7.5 18ZM16 19.5C16 18.671 16.672 18 17.5 18C18.328 18 19 18.671 19 19.5C19 20.329 18.328 21 17.5 21C16.672 21 16 20.329 16 19.5Z" fill="white"/>
</mask>
<g mask="url(#mask0)">
<g id="&#240;&#159;&#142;&#168; Color">
<rect id="Base" width="24" height="24" fill="#D0D0D0"/>
</g>
</g>
</g>
</svg>
