<svg width="16" height="16" viewBox="0 0 16 16" fill="none" xmlns="http://www.w3.org/2000/svg">
<g id="Icon/Fill/trash">
<path id="Mask" fill-rule="evenodd" clip-rule="evenodd" d="M6.66667 2.88507C6.66667 2.78174 6.80934 2.6664 7 2.6664H9C9.19067 2.6664 9.33334 2.78174 9.33334 2.88507V3.99974H6.66667V2.88507ZM14 3.99974H13.3333H10.6667V2.88507C10.6667 2.02907 9.91934 1.33307 9 1.33307H7C6.08067 1.33307 5.33334 2.02907 5.33334 2.88507V3.99974H2.66667H2C1.63334 3.99974 1.33334 4.3004 1.33334 4.6664C1.33334 5.03307 1.63334 5.33307 2 5.33307H2.66667V12.6664C2.66667 13.7697 3.564 14.6664 4.66667 14.6664H11.3333C12.436 14.6664 13.3333 13.7697 13.3333 12.6664V5.33307H14C14.3667 5.33307 14.6667 5.03307 14.6667 4.6664C14.6667 4.3004 14.3667 3.99974 14 3.99974Z" fill="#F0F0F0"/>
<mask id="mask0" mask-type="alpha" maskUnits="userSpaceOnUse" x="1" y="1" width="14" height="14">
<path id="Mask_2" fill-rule="evenodd" clip-rule="evenodd" d="M6.66667 2.88507C6.66667 2.78174 6.80934 2.6664 7 2.6664H9C9.19067 2.6664 9.33334 2.78174 9.33334 2.88507V3.99974H6.66667V2.88507ZM14 3.99974H13.3333H10.6667V2.88507C10.6667 2.02907 9.91934 1.33307 9 1.33307H7C6.08067 1.33307 5.33334 2.02907 5.33334 2.88507V3.99974H2.66667H2C1.63334 3.99974 1.33334 4.3004 1.33334 4.6664C1.33334 5.03307 1.63334 5.33307 2 5.33307H2.66667V12.6664C2.66667 13.7697 3.564 14.6664 4.66667 14.6664H11.3333C12.436 14.6664 13.3333 13.7697 13.3333 12.6664V5.33307H14C14.3667 5.33307 14.6667 5.03307 14.6667 4.6664C14.6667 4.3004 14.3667 3.99974 14 3.99974Z" fill="white"/>
</mask>
<g mask="url(#mask0)">
<g id="&#240;&#159;&#142;&#168; Color">
<rect id="Base" width="16" height="16" fill="#F0F0F0"/>
</g>
</g>
</g>
</svg>
